# xmcd CD database file
#
# Track frame offsets:
#	150
#	28380
#	53567
#	82697
#	137242
#	140962
#	188447
#	208170
#	261855
#
# Disc length: 4095 seconds
#
# Revision: 0
# Processed by: cddbd v1.5.2PL0 Copyright (c) Steve Scherf et al.
# Submitted via: CDex 1.70beta2
#
DISCID=810ffd09
DTITLE=[Iks] - Punctum
DYEAR=1997
DGENRE=Jazz
TTITLE0=Strato
TTITLE1=Ze...
TTITLE2=Le Chat
TTITLE3=Si vis bellum
TTITLE4=en grec
TTITLE5=Die Kreisel: im Taumel der Flucht
TTITLE6=Escepticismo
TTITLE7=Slide in the Zamboni Zone
TTITLE8=Quelques pas dans l'inachevé (un)
EXTD=YEAR: 1997
EXTT0=
EXTT1=
EXTT2=
EXTT3=
EXTT4=
EXTT5=
EXTT6=
EXTT7=
EXTT8=
PLAYORDER=
